{"title":"Platos Run 1997 DVDRip Hr.Janno (Eesti keeles)","uid":8007031,"size":734524880,"categoryP":"video","categoryS":"movies","magnet":"?xt=urn:btih:46f0ee5e8cd4971507dbb35a4c0ad4410d2220fe&amp;dn=Platos+Run+1997+DVDRip+Hr.Janno+%28Eesti+keeles%29&amp;tr=udp%3A%2F%2Ftracker.openbittorrent.com%3A80&amp;tr=udp%3A%2F%2Fopen.demonii.com%3A1337&amp;tr=udp%3A%2F%2Ftracker.coppersurfer.tk%3A6969&amp;tr=udp%3A%2F%2Fexodus.desync.com%3A6969","seeders":0,"leechers":2,"uploader":"Hr.Janno","files":-1,"time":1357914297,"description":"Format                                   : AVI\nFormat/Info                              : Audio Video Interleave\nFile size                                : 700 MiB\nDuration                                 : 1h 32mn\nOverall bit rate                         : 1 059 Kbps\n\nVideo\nID                                       : 0\nFormat                                   : MPEG-4 Visual\nFormat profile                           : Advanced Simple@L5\nFormat settings, BVOP                    : 1\nFormat settings, QPel                    : No\nFormat settings, GMC                     : No warppoints\nFormat settings, Matrix                  : Custom\nCodec ID                                 : XVID\nCodec ID/Hint                            : XviD\nDuration                                 : 1h 32mn\nBit rate                                 : 860 Kbps\nWidth                                    : 528 pixels\nHeight                                   : 400 pixels\nDisplay aspect ratio                     : 4:3\nFrame rate                               : 25.000 fps\nColor space                              : YUV\nChroma subsampling                       : 4:2:0\nBit depth                                : 8 bits\nScan type                                : Progressive\nCompression mode                         : Lossy\nBits/(Pixel*Frame)                       : 0.163\nStream size                              : 569 MiB (81%)\nWriting library                          : XviD 1.1.2 (UTC 2006-11-01)\n\nAudio\nID                                       : 1\nFormat                                   : AC-3\nFormat/Info                              : Audio Coding 3\nMode extension                           : CM (complete main)\nFormat settings, Endianness              : Big\nCodec ID                                 : 2000\nDuration                                 : 1h 32mn\nBit rate mode                            : Constant\nBit rate                                 : 192 Kbps\nChannel(s)                               : 2 channels\nChannel positions                        : Front: L R\nSampling rate                            : 48.0 KHz\nBit depth                                : 16 bits\nCompression mode                         : Lossy\nStream size                              : 127 MiB (18%)\nAlignment                                : Split accross interleaves\nInterleave, duration                     : 96 ms (2.40 video frames)\nInterleave, preload duration             : 96 ms\nLanguage                                 : English\nSubtitle                                 : Estonia (Eesti.SRT)","torrent":{"xt":"urn:btih:46f0ee5e8cd4971507dbb35a4c0ad4410d2220fe","amp;dn":"Platos+Run+1997+DVDRip+Hr.Janno+%28Eesti+keeles%29","amp;tr":["udp%3A%2F%2Ftracker.openbittorrent.com%3A80","udp%3A%2F%2Fopen.demonii.com%3A1337","udp%3A%2F%2Ftracker.coppersurfer.tk%3A6969","udp%3A%2F%2Fexodus.desync.com%3A6969"],"infoHash":"46f0ee5e8cd4971507dbb35a4c0ad4410d2220fe","infoHashBuffer":{"type":"Buffer","data":[70,240,238,94,140,212,151,21,7,219,179,90,76,10,212,65,13,34,32,254]},"announce":[],"urlList":[]}}